<?xml version="1.0" encoding="UTF-8" standalone="no"?>
<svg width="667px" height="153px" viewBox="0 0 667 153" version="1.1" xmlns="http://www.w3.org/2000/svg" xmlns:xlink="http://www.w3.org/1999/xlink" xmlns:sketch="http://www.bohemiancoding.com/sketch/ns">
    <!-- Generator: Sketch 3.3.2 (12043) - http://www.bohemiancoding.com/sketch -->
    <title>unterstrich.css</title>
    <desc>Created with Sketch.</desc>
    <defs></defs>
    <g id="Page-1" stroke="none" stroke-width="1" fill="none" fill-rule="evenodd" sketch:type="MSPage">
        <g id="unterstrich.css" sketch:type="MSLayerGroup" transform="translate(0.000000, -25.000000)">
            <g id="+" transform="translate(175.000000, 40.000000)" font-weight="normal" font-size="82" font-family="Monaco" fill="#000000" opacity="0.12" sketch:type="MSTextLayer">
                <text>
                    <tspan x="0" y="82">+</tspan>
                </text>
            </g>
            <g id="+-copy" transform="translate(433.000000, 40.000000)" font-weight="normal" font-family="Monaco" fill="#000000" font-size="82" sketch:type="MSTextLayer" opacity="0.12">
                <text id="+">
                    <tspan x="0" y="82">+</tspan>
                </text>
            </g>
            <g id="Oval" transform="translate(250.000000, 25.000000)" fill="#BDC3C7" sketch:type="MSShapeGroup">
                <circle cx="75" cy="75" r="75"></circle>
            </g>
            <g id="Oval" transform="translate(517.000000, 28.000000)" fill="#BDC3C7" sketch:type="MSShapeGroup">
                <circle cx="75" cy="75" r="75"></circle>
            </g>
            <g id="Oval" transform="translate(0.000000, 25.000000)" fill="#BDC3C7" sketch:type="MSShapeGroup">
                <circle cx="75" cy="75" r="75"></circle>
            </g>
            <text id="unterstrich" sketch:type="MSTextLayer" font-family="Monaco" font-size="142" font-weight="normal" fill="#FFFFFF">
                <tspan x="32" y="142">_</tspan>
            </text>
            <g id="Emmet" transform="translate(269.000000, 60.000000)" fill="#FFFFFF" sketch:type="MSShapeGroup">
                <path d="M85.5877754,40.0882564 L77.2640896,31.7645701 L81.5448424,14.1659201 L63.7083723,18.2088533 L55.6225057,10.1229869 L95.5761986,0.134563652 L85.5877754,40.0882564 L85.5877754,40.0882564 Z" id="Shape"></path>
                <path d="M71.7942389,95.2624037 L0.448358633,23.9165237 L40.4020514,13.9281005 L48.487918,22.0139669 L19.9495658,29.1485549 L36.1212986,45.3202875 L54.9090471,40.801715 L50.1526549,59.3516443 L66.3243875,75.523377 L73.4589758,46.985025 L81.7826621,55.3087107 L71.7942389,95.2624037 L71.7942389,95.2624037 Z" id="Shape"></path>
            </g>
            <g id="BEM" transform="translate(548.000000, 64.000000)" fill="#FFFFFF" sketch:type="MSShapeGroup">
                <rect id="Rectangle-path" x="55.2019608" y="66.1686275" width="38.245098" height="11.0588235"></rect>
                <path d="M42.3921569,21.9333333 L21.9333333,21.9333333 L21.9333333,0 L0,0 L0,66.2607843 L42.3921569,66.2607843 C49.4882353,66.2607843 55.2019608,60.5470588 55.2019608,53.4509804 L55.2019608,34.7431373 C55.2019608,27.6470588 49.4882353,21.9333333 42.3921569,21.9333333 L42.3921569,21.9333333 Z" id="Shape"></path>
            </g>
        </g>
    </g>
</svg>